<svg fill="none" height="32" viewBox="0 0 32 32" width="32" xmlns="http://www.w3.org/2000/svg" xmlns:xlink="http://www.w3.org/1999/xlink"><mask id="a" height="32" maskUnits="userSpaceOnUse" width="32" x="0" y="0"><path d="m0 0h32v32h-32z" fill="#d9d9d9"/></mask><g fill="#000" mask="url(#a)"><path d="m23.3714 6.37037c-2.4662-2.68819-5.9733-4.37037-9.8648-4.37037-7.45956 0-13.5066 6.1746-13.5066 13.7906s6.04704 13.7906 13.5066 13.7906c3.8915 0 7.3986-1.6822 9.8648-4.3704l8.6286-9.4169zm-9.8648 18.44463c-4.87163 0-8.8432-4.0537-8.8432-9.0277 0-4.9707 3.97157-9.02771 8.8432-9.02771 4.8715 0 8.8399 4.05701 8.8399 9.02771 0 4.974-3.9716 9.0277-8.8399 9.0277z"/><path d="m13.6794 20.3881c2.4887 0 4.5193-2.0714 4.5193-4.6145 0-2.543-2.0306-4.6144-4.5193-4.6144-2.4886 0-4.51924 2.0747-4.51924 4.6144 0 2.5431 2.03064 4.6145 4.51924 4.6145z"/></g></svg>